<svg xmlns:xlink="http://www.w3.org/1999/xlink" xmlns="http://www.w3.org/2000/svg" icon="chevron-down" class="Icon UserComponent-chevron" aria-hidden="true" width="8"  height="8" ><defs><symbol id="Icon--chevron-down" class="IconSymbol" viewBox="970 -347 24 15.4"><path d="M993.7-342.9l-11 11c-.2.2-.4.3-.7.3s-.5-.1-.7-.3l-11-11c-.2-.2-.3-.4-.3-.7s.1-.5.3-.7l2.5-2.5c.2-.2.4-.3.7-.3s.5.1.7.3l7.9 7.9 7.9-7.9c.2-.2.4-.3.7-.3s.5.1.7.3l2.5 2.5c.2.2.3.4.3.7s-.3.5-.5.7z"></path></symbol></defs><use data-classes="UserComponent-chevron" xlink:href="#Icon--chevron-down" fill="#363636"></use></svg>