<svg xmlns:xlink="http://www.w3.org/1999/xlink" xmlns="http://www.w3.org/2000/svg" class="Icon" width="24"  height="24" ><defs><symbol id="Icon--social-instagram" class="IconSymbol" viewBox="0 0 24 24"><path d="M21.3 20.3V10.2h-2.1c.2.7.3 1.3.3 2 0 1.3-.3 2.5-1 3.6s-1.6 2-2.7 2.6-2.4 1-3.8 1c-2.1 0-3.8-.7-5.3-2.1s-2.2-3.1-2.2-5.1c0-.7.1-1.4.3-2H2.6v10.1c0 .3.1.5.3.7s.4.3.7.3h16.7c.3 0 .5-.1.7-.3s.3-.4.3-.7zM16.8 12c0-1.3-.5-2.4-1.4-3.3S13.3 7.3 12 7.3s-2.5.5-3.4 1.4-1.4 2-1.4 3.3.5 2.4 1.4 3.3 2.1 1.4 3.4 1.4 2.5-.5 3.4-1.4 1.4-2.1 1.4-3.3zm4.5-5.7V3.8c0-.3-.1-.5-.3-.8s-.5-.3-.8-.3h-2.7c-.3 0-.6.1-.8.3s-.3.5-.3.8v2.6c0 .3.1.6.3.8s.5.3.8.3h2.7c.3 0 .6-.1.8-.3s.3-.6.3-.9zM24 3.1v17.8c0 .8-.3 1.6-.9 2.2s-1.3.9-2.2.9H3.1c-.8 0-1.6-.3-2.2-.9S0 21.8 0 20.9V3.1C0 2.3.3 1.5.9.9S2.2 0 3.1 0h17.8c.8 0 1.6.3 2.2.9s.9 1.3.9 2.2z"></path></symbol></defs>            <use xlink:href="#Icon--social-instagram" fill="#FFFFFF"></use>           </svg>