<svg xmlns:xlink="http://www.w3.org/1999/xlink" xmlns="http://www.w3.org/2000/svg" class="Icon" width="20"  height="20" ><defs><symbol id="Icon--mobile-phone" class="IconSymbol" viewBox="0 -256 1792 1792"><path d="M949.966 1149.83q0-33-23.5-56.5t-56.5-23.5q-33 0-56.5 23.5t-23.5 56.5q0 33 23.5 56.5t56.5 23.5q33 0 56.5-23.5t23.5-56.5zm208-160v-704q0-13-9.5-22.5t-22.5-9.5h-512q-13 0-22.5 9.5t-9.5 22.5v704q0 13 9.5 22.5t22.5 9.5h512q13 0 22.5-9.5t9.5-22.5zm-192-848q0-16-16-16h-160q-16 0-16 16t16 16h160q16 0 16-16zm288-16v1024q0 52-38 90t-90 38h-512q-52 0-90-38t-38-90v-1024q0-52 38-90t90-38h512q52 0 90 38t38 90z"></path></symbol></defs>           <use xlink:href="#Icon--mobile-phone" fill="#FFFFFF"></use>          </svg>