<svg xmlns:xlink="http://www.w3.org/1999/xlink" xmlns="http://www.w3.org/2000/svg" class="Icon" width="18.1"  height="24" ><defs><symbol id="Icon--social-pinterest" class="IconSymbol" viewBox="3.9 0 18.1 24"><path d="M14.7 16.9c-1.1 0-2.2-.4-3-1.2-.5 1.4-1.2 3.2-1.2 3.6-.5 1.9-1.8 3.7-2.4 4.4-.1.2-.3.3-.5.3-.3 0-.6-.2-.6-.5-.3-1.9-.3-3.7.1-5 .2-.9 1.9-6.7 2.2-7.7-.1-.3-.3-1.1-.3-2.1C9 6.6 10.3 5 11.9 5c1.3 0 2.1.9 2.1 2.4 0 .8-.3 1.8-.6 2.9-.1.6-.4 1.2-.5 1.7-.1.5 0 .9.3 1.3s.8.6 1.3.6c2.1 0 3.6-2.7 3.6-6.3 0-2.7-1.9-4.5-4.9-4.5C9.3 3 7.3 6 7.3 8.7c0 .9.2 1.7.7 2.2.3.4.4.6.3 1.1L8 13c-.1.4-.4.7-.9.7-.1 0-.3 0-.4-.1C5 13 3.9 11 3.9 8.4 3.9 4.3 7.5 0 13.5 0 18.9 0 22 4 22 7.7c0 5.3-3.1 9.2-7.3 9.2z"></path></symbol></defs>            <use xlink:href="#Icon--social-pinterest" fill="#FFFFFF"></use>           </svg>