<svg xmlns:xlink="http://www.w3.org/1999/xlink" xmlns="http://www.w3.org/2000/svg" icon="chevron-right" aria-hidden="true" class="Icon" width="16"  height="16" ><defs><symbol id="Icon--chevron-right" class="IconSymbol" viewBox="-293 385 24 24"><path d="M-285.9 408.9l-2.5-2.5c-.2-.2-.3-.4-.3-.7s.1-.5.3-.7l7.9-7.9-7.9-7.9c-.2-.2-.3-.4-.3-.7 0-.3.1-.5.3-.7l2.5-2.5c.2-.2.4-.3.7-.3s.5.1.7.3l11 11c.2.2.3.4.3.7s-.1.5-.3.7l-11 11c-.2.2-.4.3-.7.3s-.5.1-.7-.1z"></path></symbol></defs><use data-classes="" xlink:href="#Icon--chevron-right" fill="#FFFFFF"></use></svg>