<svg xmlns:xlink="http://www.w3.org/1999/xlink" xmlns="http://www.w3.org/2000/svg" class="Icon" aria-hidden="true" width="24"  height="23.5" ><defs><symbol id="Icon--search" class="IconSymbol" viewBox="0 0 24 23.5"><path d="M23.3 19.5L18.9 15c.8-1.5 1.3-3.2 1.3-5 0-5.5-4.5-10-10.1-10S0 4.5 0 10.1s4.5 10.1 10.1 10.1c2.1 0 4-.6 5.6-1.7l4.3 4.3c.5.5 1.1.7 1.6.7.6 0 1.2-.2 1.6-.7 1-.9 1-2.4.1-3.3zM3.1 10.1c0-3.9 3.1-7 7-7s7 3.1 7 7-3.1 7-7 7-7-3.2-7-7z"></path></symbol></defs><use xlink:href="#Icon--search" fill="#FFFFFF"></use></svg>