<svg xmlns:xlink="http://www.w3.org/1999/xlink" xmlns="http://www.w3.org/2000/svg" class="Icon" width="24"  height="24" ><defs><symbol id="Icon--social-twitter" class="IconSymbol" viewBox="-3 7 24 20"><path d="M21 9.4c-.9.4-1.8.7-2.8.8 1-.6 1.8-1.6 2.2-2.8-1 .6-2 1-3.1 1.2-1-1-2.3-1.6-3.7-1.6-2.7 0-4.9 2.3-4.9 5 0 .4 0 .8.1 1.2C4.7 13 1.1 11-1.3 7.9c-.5.8-.7 1.6-.7 2.6 0 1.8.9 3.3 2.2 4.2-.8 0-1.6-.3-2.2-.6v.1c0 2.4 1.7 4.5 3.9 5-.4.1-.8.2-1.3.2-.3 0-.6 0-.9-.1.6 2 2.4 3.5 4.6 3.5C2.6 24.2.5 25-1.8 25c-.4 0-.8 0-1.2-.1 2.2 1.4 4.8 2.3 7.5 2.3 9.1 0 14-7.7 14-14.4v-.7c1-.8 1.8-1.7 2.5-2.7z"></path></symbol></defs>            <use xlink:href="#Icon--social-twitter" fill="#FFFFFF"></use>           </svg>